<svg xmlns="http://www.w3.org/2000/svg" width="1800" height="855" viewBox="0 125 1800 855" role="img" aria-labelledby="title desc">
  <title id="title">MSME Financial Health Card Architecture</title>
  <desc id="desc">Architecture diagram showing the Next.js dashboard, FastAPI routes, seven-node LangGraph pipeline, RAG index, Gemini model, safety controls, observability, and financial health card outputs.</desc>
  <defs>
    <marker id="arrow" viewBox="0 0 10 10" refX="9" refY="5" markerWidth="8" markerHeight="8" orient="auto-start-reverse">
      <path d="M 0 0 L 10 5 L 0 10 z" fill="#475569"/>
    </marker>
    <marker id="arrowBlue" viewBox="0 0 10 10" refX="9" refY="5" markerWidth="8" markerHeight="8" orient="auto-start-reverse">
      <path d="M 0 0 L 10 5 L 0 10 z" fill="#2563eb"/>
    </marker>
    <style>
      .title { font: 700 38px Arial, sans-serif; fill: #0f172a; }
      .subtitle { font: 400 18px Arial, sans-serif; fill: #475569; }
      .group { font: 700 17px Arial, sans-serif; fill: #334155; letter-spacing: 1px; }
      .node-title { font: 700 17px Arial, sans-serif; fill: #0f172a; }
      .node-text { font: 400 14px Arial, sans-serif; fill: #334155; }
      .small { font: 600 13px Arial, sans-serif; fill: #475569; }
      .link { fill: none; stroke: #475569; stroke-width: 2.5; }
      .link-blue { fill: none; stroke: #2563eb; stroke-width: 2.5; }
      .arrow { fill: #475569; }
      .arrow-blue { fill: #2563eb; }
    </style>
  </defs>

  <rect width="1800" height="1120" fill="#ffffff"/>
  <rect x="48" y="150" width="325" height="808" rx="16" fill="#edf5ff" stroke="#bfdbfe" stroke-width="2"/>
  <text x="76" y="188" class="group">WEB CLIENT</text>
  <rect x="76" y="220" width="270" height="82" rx="10" fill="#ffffff" stroke="#60a5fa" stroke-width="2"/>
  <text x="211" y="252" text-anchor="middle" class="node-title">Loan Officer</text>
  <text x="211" y="278" text-anchor="middle" class="node-text">Reviews credit health</text>
  <rect x="76" y="345" width="270" height="145" rx="10" fill="#ffffff" stroke="#2563eb" stroke-width="2"/>
  <text x="211" y="378" text-anchor="middle" class="node-title">Next.js Dashboard</text>
  <text x="211" y="405" text-anchor="middle" class="node-text">Financial Health Card</text>
  <text x="211" y="428" text-anchor="middle" class="node-text">Persona selector and custom form</text>
  <text x="211" y="451" text-anchor="middle" class="node-text">Stress chart and grounding trace</text>
  <rect x="76" y="544" width="270" height="105" rx="10" fill="#ffffff" stroke="#60a5fa" stroke-width="2"/>
  <text x="211" y="578" text-anchor="middle" class="node-title">Demo Inputs</text>
  <text x="211" y="605" text-anchor="middle" class="node-text">4 curated personas</text>
  <text x="211" y="628" text-anchor="middle" class="node-text">or custom MSME profile</text>
  <path d="M211 302 L211 345" class="link-blue"/>
  <path d="M211 544 L211 490" class="link-blue"/>

  <rect x="410" y="150" width="1032" height="808" rx="16" fill="#ffffff" stroke="#cbd5e1" stroke-width="2"/>
  <text x="440" y="188" class="group">FASTAPI AND LANGGRAPH ANALYSIS SERVICE</text>
  <rect x="440" y="220" width="230" height="88" rx="10" fill="#e8f7ef" stroke="#22c55e" stroke-width="2"/>
  <text x="555" y="253" text-anchor="middle" class="node-title">FastAPI Routes</text>
  <text x="555" y="279" text-anchor="middle" class="node-text">Personas and custom analysis</text>

  <rect x="720" y="220" width="682" height="88" rx="10" fill="#fff7e6" stroke="#f59e0b" stroke-width="2"/>
  <text x="1061" y="253" text-anchor="middle" class="node-title">LangGraph Orchestrator</text>
  <text x="1061" y="279" text-anchor="middle" class="node-text">Stateful seven-node analysis pipeline</text>
  <path d="M670 264 L720 264" class="link"/>
  <path d="M1061 308 L1061 335 L515 335 L515 365" class="link"/>

  <rect x="440" y="365" width="150" height="102" rx="10" fill="#fff7e6" stroke="#f59e0b" stroke-width="2"/>
  <text x="515" y="402" text-anchor="middle" class="node-title">1. Aggregate</text>
  <text x="515" y="428" text-anchor="middle" class="node-text">Profile data</text>
  <rect x="620" y="365" width="150" height="102" rx="10" fill="#fff7e6" stroke="#f59e0b" stroke-width="2"/>
  <text x="695" y="402" text-anchor="middle" class="node-title">2. Retrieve</text>
  <text x="695" y="428" text-anchor="middle" class="node-text">Sector guidance</text>
  <rect x="800" y="365" width="150" height="102" rx="10" fill="#fff7e6" stroke="#f59e0b" stroke-width="2"/>
  <text x="875" y="402" text-anchor="middle" class="node-title">3. Weights</text>
  <text x="875" y="428" text-anchor="middle" class="node-text">Validated vector</text>
  <rect x="980" y="365" width="150" height="102" rx="10" fill="#fff7e6" stroke="#f59e0b" stroke-width="2"/>
  <text x="1055" y="402" text-anchor="middle" class="node-title">4. Stress</text>
  <text x="1055" y="428" text-anchor="middle" class="node-text">4 scenarios</text>
  <rect x="1160" y="365" width="150" height="102" rx="10" fill="#fff7e6" stroke="#f59e0b" stroke-width="2"/>
  <text x="1235" y="402" text-anchor="middle" class="node-title">5. Risk Engine</text>
  <text x="1235" y="428" text-anchor="middle" class="node-text">CFCR and score</text>
  <path d="M590 416 L620 416" class="link"/>
  <path d="M770 416 L800 416" class="link"/>
  <path d="M950 416 L980 416" class="link"/>
  <path d="M1130 416 L1160 416" class="link"/>

  <rect x="620" y="535" width="220" height="104" rx="10" fill="#fff7e6" stroke="#f59e0b" stroke-width="2"/>
  <text x="730" y="571" text-anchor="middle" class="node-title">6. Explainer</text>
  <text x="730" y="597" text-anchor="middle" class="node-text">Grounded risk narrative</text>
  <rect x="900" y="535" width="220" height="104" rx="10" fill="#fff7e6" stroke="#f59e0b" stroke-width="2"/>
  <text x="1010" y="571" text-anchor="middle" class="node-title">7. Grounding Validator</text>
  <text x="1010" y="597" text-anchor="middle" class="node-text">Numbers and citations</text>
  <path d="M1235 467 L1235 505 L840 505 L840 587" class="link"/>
  <path d="M840 587 L900 587" class="link"/>

  <rect x="440" y="724" width="280" height="172" rx="10" fill="#f3e8ff" stroke="#a855f7" stroke-width="2"/>
  <text x="580" y="760" text-anchor="middle" class="node-title">RAG Knowledge Layer</text>
  <text x="580" y="788" text-anchor="middle" class="node-text">MSME research PDFs</text>
  <text x="580" y="812" text-anchor="middle" class="node-text">Recursive chunking</text>
  <text x="580" y="836" text-anchor="middle" class="node-text">Chroma vector index</text>
  <text x="580" y="860" text-anchor="middle" class="node-text">Offline-safe empty fallback</text>

  <rect x="778" y="724" width="280" height="172" rx="10" fill="#f3e8ff" stroke="#a855f7" stroke-width="2"/>
  <text x="918" y="760" text-anchor="middle" class="node-title">LLM Provider</text>
  <text x="918" y="788" text-anchor="middle" class="node-text">Gemini 3.1 Flash Lite</text>
  <text x="918" y="812" text-anchor="middle" class="node-text">OpenAI-compatible client</text>
  <text x="918" y="836" text-anchor="middle" class="node-text">XML-fenced untrusted input</text>
  <text x="918" y="860" text-anchor="middle" class="node-text">Default-weight fallback</text>

  <rect x="1116" y="724" width="255" height="172" rx="10" fill="#f3e8ff" stroke="#a855f7" stroke-width="2"/>
  <text x="1244" y="760" text-anchor="middle" class="node-title">Observability</text>
  <text x="1244" y="788" text-anchor="middle" class="node-text">Node latency</text>
  <text x="1244" y="812" text-anchor="middle" class="node-text">Token and cost metrics</text>
  <text x="1244" y="836" text-anchor="middle" class="node-text">Structured logs</text>
  <text x="1244" y="860" text-anchor="middle" class="node-text">Optional LangSmith traces</text>

  <rect x="1480" y="150" width="272" height="808" rx="16" fill="#fff1f2" stroke="#fecdd3" stroke-width="2"/>
  <text x="1508" y="188" class="group">FINANCIAL HEALTH CARD</text>
  <rect x="1508" y="228" width="216" height="105" rx="10" fill="#ffffff" stroke="#fb7185" stroke-width="2"/>
  <text x="1616" y="264" text-anchor="middle" class="node-title">CFCR Headline</text>
  <text x="1616" y="290" text-anchor="middle" class="node-text">Baseline liquidity result</text>
  <rect x="1508" y="374" width="216" height="105" rx="10" fill="#ffffff" stroke="#fb7185" stroke-width="2"/>
  <text x="1616" y="410" text-anchor="middle" class="node-title">Stress Results</text>
  <text x="1616" y="436" text-anchor="middle" class="node-text">Delay, drop, loss, rate hike</text>
  <rect x="1508" y="520" width="216" height="105" rx="10" fill="#ffffff" stroke="#fb7185" stroke-width="2"/>
  <text x="1616" y="556" text-anchor="middle" class="node-title">Weight Rationale</text>
  <text x="1616" y="582" text-anchor="middle" class="node-text">Locked source weights</text>
  <rect x="1508" y="666" width="216" height="105" rx="10" fill="#ffffff" stroke="#fb7185" stroke-width="2"/>
  <text x="1616" y="702" text-anchor="middle" class="node-title">Grounding Trace</text>
  <text x="1616" y="728" text-anchor="middle" class="node-text">Numeric and citation checks</text>
  <path d="M1120 587 L1410 587 L1410 810 L1480 810" class="link"/>

  <path d="M346 420 L392 420 L392 264 L440 264" class="link-blue"/>

  <polygon points="205,334 217,334 211,345" class="arrow-blue"/>
  <polygon points="205,501 217,501 211,490" class="arrow-blue"/>
  <polygon points="429,258 429,270 440,264" class="arrow-blue"/>
  <polygon points="709,258 709,270 720,264" class="arrow"/>
  <polygon points="509,354 521,354 515,365" class="arrow"/>
  <polygon points="609,410 609,422 620,416" class="arrow"/>
  <polygon points="759,410 759,422 770,416" class="arrow"/>
  <polygon points="939,410 939,422 950,416" class="arrow"/>
  <polygon points="1119,410 1119,422 1130,416" class="arrow"/>
  <polygon points="834,576 846,576 840,587" class="arrow"/>
  <polygon points="889,581 889,593 900,587" class="arrow"/>
  <polygon points="1469,804 1469,816 1480,810" class="arrow"/>
</svg>